<svg width="28" height="29" viewBox="0 0 28 29" fill="none" xmlns="http://www.w3.org/2000/svg">
<g filter="url(#filter0_d_1_245)">
<path d="M7.63448 5.71444C8.15212 5.52698 8.78039 5.25768 9.29714 5.08911C9.30445 5.08672 9.31176 5.08433 9.31909 5.08193C9.52969 5.01324 9.74867 4.94561 10.0099 4.86541C10.0435 4.85511 10.0782 4.84446 10.1134 4.83362C10.3348 4.7657 10.5948 4.68565 10.9153 4.58539C11.0392 4.5468 11.1704 4.50692 11.313 4.46503C13.0013 3.95683 14.3233 3.75134 14.6993 3.73289C14.886 3.71752 15.0814 3.71534 15.2199 3.73128C14.8208 3.68902 14.7582 3.13555 14.7864 3.3363C14.9301 2.98015 14.3179 3.81243 13.8467 4.14683C13.7585 4.22097 13.6671 4.2963 13.5733 4.37244C13.4959 4.43538 13.4167 4.46486 13.3941 4.44115C13.3724 4.41671 13.416 4.34809 13.4927 4.28575C13.5846 4.21116 13.6725 4.13871 13.7588 4.06619C13.7592 4.06586 13.7596 4.06554 13.76 4.06521C14.2348 3.74107 14.86 2.84191 14.6684 3.32608C14.6319 3.12591 14.7157 3.79982 15.2025 3.84862C15.0867 3.83564 14.9114 3.83619 14.7446 3.84892C14.3735 3.86346 13.0337 4.0674 11.3134 4.58871C11.1857 4.62652 11.0686 4.66214 10.9561 4.69724C10.6122 4.80502 10.3358 4.89025 10.1024 4.96191C10.0679 4.97254 10.0344 4.9828 10.002 4.99276C10.0012 4.99299 10.0004 4.99322 9.99968 4.99345C9.73561 5.07462 9.52791 5.13861 9.32528 5.20476C9.32097 5.2062 9.31666 5.20764 9.31235 5.20907C8.78942 5.37972 8.1742 5.64462 7.67225 5.8264C7.57836 5.86036 7.48944 5.86443 7.47972 5.83325C7.4687 5.80257 7.54049 5.74848 7.63448 5.71444ZM18.3688 8.78773C18.8341 8.56561 19.5104 8.32286 20.0461 8.33158C20.1057 8.33239 20.1649 8.33599 20.2279 8.34107C20.3341 8.35112 20.3286 8.37372 20.3098 8.36188C20.2929 8.34321 20.3078 8.39586 20.2849 8.45755C20.2654 8.51238 20.1808 8.6244 20.1214 8.68352C19.9755 8.83526 19.7758 9.0154 19.519 9.22122C19.4599 9.26858 19.3979 9.3172 19.3326 9.36716C19.2491 9.43104 19.1604 9.49702 19.0667 9.56485C18.9613 9.63896 18.7794 9.73887 18.6006 9.83084C17.4911 10.3872 16.7371 10.7484 16.2148 11.0183C16.1075 11.0731 16.0068 11.1247 15.9124 11.1732C15.9123 11.1732 15.9121 11.1733 15.9119 11.1734C15.7749 11.2437 15.6514 11.3071 15.5358 11.3655C15.3461 11.4614 15.1821 11.5472 15.0244 11.6282C14.5644 11.8626 14.2003 12.1101 13.8008 12.3483C13.6916 12.413 13.5772 12.4829 13.4574 12.5558C12.9363 12.8745 12.3612 13.2864 11.9725 13.606C11.947 13.627 11.9193 13.6498 11.8916 13.6726C11.5457 13.9609 11.114 14.3135 10.481 14.8745C10.1359 15.1806 9.82417 15.4824 9.55597 15.7278C9.36054 15.9094 9.23927 16.0744 9.12212 16.2318C9.02537 16.3645 8.94025 16.4907 8.86118 16.6122C8.66279 16.9185 8.50155 17.1945 8.35879 17.4575C8.02378 18.0783 7.7594 18.6007 7.52817 19.0246C7.45183 19.1832 7.25386 19.3408 7.10676 19.7204C7.12753 19.786 6.90658 19.8404 7.17693 20.356C7.57153 20.7074 7.66294 20.5527 7.76013 20.5814C8.07141 20.565 8.33969 20.5256 8.56962 20.4725C9.15665 20.3301 9.45363 20.1605 9.65889 20.066C9.72082 20.0354 9.77424 20.008 9.82375 19.981C10.2606 19.74 10.5984 19.5021 11.015 19.2427C11.0741 19.2057 11.1318 19.1701 11.1945 19.1318C11.2032 19.1263 11.2278 19.1075 11.2361 19.1014C11.2714 19.0762 11.3099 19.0485 11.3467 19.0222C11.6838 18.7798 11.9195 18.584 12.1007 18.4265C12.1802 18.3574 12.249 18.2957 12.3136 18.2376C12.3148 18.2365 12.3159 18.2354 12.3171 18.2343C12.3262 18.2262 12.3352 18.2182 12.3441 18.2101C12.3509 18.2041 12.3576 18.1979 12.3642 18.1919C12.3666 18.1892 12.3688 18.1869 12.3704 18.1852C12.3717 18.1838 12.3727 18.1827 12.3734 18.182C12.3735 18.1819 12.3736 18.1817 12.3737 18.1816C12.3854 18.1691 12.3962 18.1591 12.3985 18.1571C12.4023 18.1535 12.4058 18.1505 12.4076 18.1489C12.417 18.1405 12.4294 18.13 12.4377 18.1231C12.4591 18.1051 12.4958 18.0746 12.5533 18.0271C12.6026 17.9847 12.6486 17.9435 12.7067 17.8913C12.7103 17.888 12.714 17.8848 12.7176 17.8815C12.774 17.8308 12.8402 17.7715 12.9238 17.698C12.9999 17.6312 13.0867 17.5903 13.1177 17.6068C13.1487 17.6234 13.1121 17.691 13.0361 17.7579C12.9572 17.8272 12.8955 17.8826 12.8389 17.9335C12.8353 17.9367 12.8317 17.9399 12.8281 17.9431C12.7694 17.9959 12.7132 18.0462 12.6521 18.0987C12.6315 18.1164 12.6101 18.1345 12.5902 18.1512C12.555 18.1818 12.5148 18.2177 12.4674 18.2604C12.4579 18.269 12.448 18.2777 12.438 18.2868C12.373 18.3452 12.2977 18.413 12.2118 18.4878C12.0092 18.6638 11.749 18.8799 11.3804 19.1444C11.3563 19.1617 11.3328 19.1786 11.3098 19.195C11.3001 19.2021 11.2715 19.2239 11.2614 19.2304C11.1892 19.2744 11.121 19.3166 11.0528 19.3594C10.6355 19.6192 10.2763 19.876 9.79474 20.1353C9.72804 20.1707 9.66221 20.2031 9.58994 20.2369C9.37554 20.3309 9.10352 20.4732 8.54314 20.6003C8.32415 20.6475 8.06672 20.6837 7.76909 20.6994C7.66077 20.6642 7.56478 20.8518 7.08731 20.4333C6.75621 19.8083 7.02449 19.7514 6.99462 19.6831C7.15736 19.2658 7.35976 19.1093 7.42407 18.9688C7.65083 18.5532 7.91275 18.0359 8.2466 17.4164C8.39686 17.139 8.56981 16.8432 8.77469 16.5286C8.85344 16.408 8.93707 16.2845 9.03 16.1574C9.14932 15.9975 9.27156 15.8307 9.47638 15.6402C9.73398 15.4048 10.0371 15.1111 10.3704 14.8138C10.992 14.2602 11.4114 13.916 11.7583 13.6261C11.7702 13.6162 11.7821 13.6063 11.7942 13.5963C11.8092 13.5839 11.8241 13.5716 11.8391 13.5593C12.241 13.2274 12.8364 12.7985 13.3909 12.4572C13.5337 12.3698 13.6714 12.2845 13.8052 12.2044C14.189 11.9733 14.5497 11.7337 15.0119 11.5009C15.1557 11.4279 15.3012 11.3519 15.4826 11.26C15.5849 11.2082 15.6971 11.1506 15.8256 11.0847C15.9239 11.0342 16.0311 10.9794 16.1499 10.9188C16.6808 10.6443 17.4492 10.2766 18.5643 9.7163C18.7328 9.62962 18.9075 9.53234 18.9961 9.46997C19.0878 9.40368 19.175 9.33887 19.2582 9.27525C19.3241 9.22482 19.3876 9.17516 19.4488 9.12605C19.702 8.92314 19.9247 8.72264 20.0664 8.56561C20.1078 8.52336 20.1594 8.44272 20.1673 8.43466C20.188 8.39213 20.165 8.37024 20.2174 8.43708C20.2656 8.48693 20.3211 8.4705 20.223 8.4597C20.153 8.4539 20.0895 8.45013 20.0256 8.44983C19.5268 8.44732 18.9035 8.6703 18.4986 8.86096C18.4545 8.88182 18.4136 8.90167 18.37 8.92279C18.0957 9.05595 17.8208 9.19896 17.5783 9.34252C17.4942 9.3925 17.4104 9.44379 17.3349 9.49331C16.066 10.4441 13.4469 11.4837 11.7005 12.1781C11.6772 12.1874 11.654 12.1966 11.6309 12.2057C11.5298 12.2459 11.4274 12.2862 11.3295 12.3244C9.7379 12.9519 8.42181 13.3787 7.62432 13.4239C7.51097 13.4336 7.41707 13.4403 7.34064 13.4452C7.31413 13.4469 7.29032 13.4484 7.26877 13.4496C7.24916 13.4507 7.23153 13.4518 7.21605 13.4526C6.98443 13.4645 6.77466 13.4732 6.54808 13.4721C6.53582 13.472 6.52358 13.4719 6.51091 13.4717C6.26959 13.4672 6.01192 13.4589 5.66776 13.384C5.37859 13.3123 5.04228 13.2238 4.69959 12.8937C4.56057 12.7244 4.24426 12.512 4.24325 11.8597C4.45578 10.8897 4.68099 10.7111 4.92452 10.2673C4.99972 10.148 5.07811 10.0314 5.1557 9.92185C5.15593 9.92153 5.15616 9.92121 5.15639 9.92089C5.49854 9.43911 5.85055 9.04899 6.21012 8.71094C6.87092 8.09714 7.3863 7.76561 7.7863 7.51903C7.85131 7.4796 7.91473 7.44217 7.97684 7.40643C8.04015 7.37012 8.10226 7.33652 8.16095 7.30599C8.42537 7.16937 8.6462 7.07571 8.86783 6.98666C9.28511 6.82116 9.64275 6.68459 9.98362 6.53943C10.0138 6.52661 10.0441 6.51375 10.0743 6.50072C10.4404 6.34293 10.7867 6.17838 11.1395 5.9899C11.2211 5.9463 11.301 5.93182 11.3189 5.95926C11.3364 5.98677 11.2841 6.04661 11.2015 6.09083C10.8547 6.27643 10.5134 6.43982 10.1458 6.59901C10.1158 6.61199 10.0846 6.62545 10.0539 6.63849C9.71248 6.78456 9.34784 6.92386 8.92616 7.09066C8.71399 7.17568 8.50807 7.26263 8.25609 7.39029C8.18568 7.42621 8.11202 7.46551 8.03406 7.51023C7.98181 7.54032 7.92817 7.57186 7.87295 7.60511C7.47235 7.85019 6.95504 8.18142 6.29699 8.79158C5.94611 9.12097 5.60286 9.49925 5.26451 9.97289C5.18776 10.0807 5.10955 10.1964 5.0339 10.3158C4.79323 10.7468 4.5612 10.9614 4.3613 11.8672C4.36105 12.4477 4.64819 12.6488 4.78353 12.8104C5.09479 13.1111 5.41012 13.1984 5.68656 13.267C6.00078 13.3364 6.24095 13.347 6.47804 13.3526C6.49127 13.3529 6.50456 13.3531 6.51791 13.3532C6.73889 13.3555 6.95813 13.3474 7.20064 13.335C7.23305 13.3333 7.27474 13.331 7.324 13.3279C7.40195 13.323 7.49789 13.3162 7.61443 13.3062C8.39472 13.2624 9.69879 12.8404 11.2854 12.2148C11.385 12.176 11.4889 12.135 11.5919 12.0941C11.5982 12.0916 11.6045 12.0891 11.6109 12.0866C12.9624 11.5449 13.7068 11.2193 14.2576 10.9465C14.6909 10.7301 15.019 10.5778 15.2886 10.4549C15.3402 10.4314 15.3882 10.4095 15.435 10.3882C15.6356 10.297 15.7935 10.2251 15.9494 10.1467C16.4198 9.91023 16.7471 9.72008 17.1328 9.46731C17.2527 9.38834 17.3904 9.30577 17.5278 9.22657C17.7605 9.0926 18.01 8.96352 18.2391 8.8509C18.2396 8.85063 18.2402 8.85036 18.2407 8.8501C18.2826 8.82933 18.3276 8.80768 18.3688 8.78773ZM14.0082 16.7131C14.0882 16.6494 14.1679 16.6199 14.1881 16.6455C14.2074 16.6719 14.1597 16.7435 14.0798 16.8071C13.8906 16.9575 13.7004 17.1095 13.511 17.2609C13.4316 17.3244 13.3509 17.3552 13.3311 17.3293C13.3112 17.3034 13.3598 17.2306 13.4393 17.167C13.6287 17.0155 13.819 16.8635 14.0082 16.7131ZM17.757 8.39852C17.8496 8.35333 17.9479 8.33637 17.9822 8.35711C18.0155 8.3783 17.9669 8.43097 17.878 8.47419C17.829 8.49786 17.7534 8.53554 17.6469 8.58941C17.5589 8.63422 17.4506 8.68997 17.3231 8.75651C16.3927 9.2404 14.5187 10.2511 12.4791 11.1777C12.2834 11.2663 12.1097 11.3447 11.9419 11.4197C11.6633 11.5443 11.4092 11.6681 11.1201 11.8038C10.6654 12.0141 10.1318 12.2689 9.25234 12.5597C8.72161 12.7302 8.16903 12.8855 7.58301 12.932C6.78204 12.9453 5.95641 13.1645 5.07578 12.5203C4.95933 12.388 4.77297 12.2313 4.77774 11.8938C5.38775 10.0213 6.73923 8.81964 8.27798 7.95263C9.78062 7.25029 11.2997 6.8898 12.5496 5.92683C13.5676 5.15349 14.8603 4.25495 15.3729 3.38717C15.3824 3.2824 15.3631 3.18116 15.3442 3.1633C15.3336 3.15352 15.3412 3.15597 15.3063 3.14973C13.805 3.05789 12.2139 3.54626 10.7272 4.06998C10.6168 4.11018 10.5105 4.14893 10.4009 4.18889C8.98278 4.70234 6.37496 5.6182 5.75609 5.83528C5.65979 5.86902 5.5679 5.87127 5.56059 5.83919C5.54973 5.80857 5.62385 5.75647 5.71963 5.72289C6.33143 5.50828 8.93253 4.59492 10.3454 4.08328C10.4605 4.04132 10.5712 4.00098 10.6866 3.95891C12.1858 3.4331 13.7673 2.93808 15.3237 3.03252C15.3749 3.03928 15.4085 3.05596 15.4346 3.0868C15.4859 3.14544 15.5008 3.27386 15.4911 3.39742C14.9094 4.41967 13.6544 5.23208 12.6313 6.03834C11.3758 7.02373 9.80754 7.42272 8.36836 8.11655C6.87767 8.95817 5.5572 10.2439 5.01807 11.9092C5.01103 12.0959 5.13923 12.2326 5.24944 12.348C5.92368 12.8535 6.7905 12.7066 7.56139 12.6746C8.1164 12.629 8.65395 12.4778 9.17918 12.3087C10.0493 12.0203 10.5937 11.8195 11.0582 11.6501C11.3422 11.5447 11.5945 11.4451 11.865 11.3243C12.0331 11.2491 12.2072 11.1705 12.4049 11.0812C14.4759 10.1407 16.3741 9.11315 17.2745 8.64492C17.3682 8.59612 17.4457 8.55573 17.5175 8.51913C17.6236 8.46461 17.7084 8.42248 17.757 8.39852ZM19.8476 9.76213C19.7224 9.86464 19.5881 9.96878 19.446 10.0749C18.4843 10.6863 17.2534 11.2311 16.1601 11.7808C16.0482 11.8358 15.9376 11.8902 15.8277 11.9443C15.3392 12.1818 14.9204 12.442 14.5824 12.6867C14.3173 12.8767 14.0869 13.039 13.8733 13.1723C13.5728 13.3608 13.3214 13.513 13.0732 13.6652C13.0686 13.668 13.0641 13.6708 13.0595 13.6736C12.638 13.9339 12.2128 14.1954 11.5671 14.6803C11.0845 15.0407 10.498 15.5421 9.91057 16.1177C9.709 16.3128 9.54562 16.5625 9.3889 16.811C9.38842 16.8117 9.38794 16.8124 9.38747 16.8132C8.86134 17.6716 8.46942 18.6213 8.09898 19.3307C8.05006 19.4245 7.99454 19.5063 7.94209 19.5796C7.85035 19.7073 7.76347 19.8217 7.72762 19.9274C7.73113 20.0875 7.58831 19.8688 7.71028 19.9249C9.16518 19.8626 9.99285 18.8618 10.7482 18.4745C11.1941 18.152 11.5469 17.8963 11.811 17.7114C12.6221 17.1429 13.4345 16.4422 14.2646 15.7883C14.7611 15.3973 15.2628 15.035 15.7942 14.7457C15.9614 14.6683 15.7569 14.9174 15.4789 15.0775C15.4688 15.0836 15.4591 15.0896 15.4492 15.0957C15.3545 15.1539 15.2734 15.2055 15.16 15.2838C14.9987 15.3989 14.8809 15.4893 14.7736 15.5721C14.7092 15.6219 14.5575 15.7385 14.3526 15.8987C13.6642 16.4361 12.3854 17.4569 11.827 17.8472C11.5812 18.0191 11.2591 18.2738 10.8432 18.6023C10.1258 18.9969 9.33491 20.0788 7.72981 20.1822C7.61778 20.2831 7.36304 19.9045 7.48073 19.8451C7.53973 19.6749 7.6448 19.5482 7.73341 19.422C7.7824 19.3534 7.8308 19.2837 7.87255 19.2093C8.25556 18.5284 8.74293 17.6429 9.27524 16.7693C9.27689 16.7666 9.27854 16.764 9.28019 16.7613C9.44214 16.5047 9.60677 16.2474 9.83084 16.03C10.4108 15.4617 11.0071 14.9507 11.4945 14.587C12.1666 14.0823 12.6104 13.8105 13.0408 13.5449C13.0451 13.5423 13.0494 13.5397 13.0536 13.5371C13.2917 13.3915 13.5281 13.2487 13.807 13.074C14.0178 12.9429 14.2445 12.7837 14.5125 12.5915C14.856 12.3426 15.2843 12.0769 15.7744 11.8386C15.8908 11.7813 16.0083 11.7236 16.1266 11.6655C17.2164 11.1183 18.4518 10.5679 19.3755 9.9801C19.5118 9.87826 19.6407 9.77837 19.7607 9.68046C19.8401 9.61572 19.9234 9.57934 19.9478 9.60141C19.9724 9.6233 19.928 9.69629 19.8476 9.76213ZM20.2895 10.3513C20.1578 10.4653 20.0263 10.5735 19.8948 10.6784C18.52 11.5848 17.4358 12.0618 16.2064 12.6952C15.5508 13.0074 15.0796 13.3777 14.3413 13.8663C13.5792 14.3552 12.8305 14.8376 12.1069 15.3381C11.6241 15.6994 11.0854 16.1366 10.459 16.7208C10.371 16.7952 10.1932 17.0295 10.0498 17.25C10.0433 17.2597 10.0368 17.2696 10.0303 17.2795C9.52772 18.0604 9.07745 18.9553 8.69742 19.6517C8.61984 19.7945 8.54186 19.9033 8.48336 19.9852C8.38698 20.113 8.3471 20.1936 8.3696 20.1414C8.30009 20.1634 8.55083 20.2592 8.24501 19.5586C7.69928 19.0449 7.68351 19.3034 7.65895 19.2492C8.77726 19.2301 9.54544 18.3352 10.3443 17.8796L10.2998 17.9121C10.7444 17.5785 11.0987 17.3118 11.3649 17.1255C12.0527 16.6424 12.2335 16.4941 12.502 16.2758C12.5093 16.2698 12.5166 16.2639 12.524 16.258C12.5244 16.2576 12.5248 16.2571 12.5252 16.2566C12.5334 16.248 12.5407 16.2409 12.5444 16.2374C12.552 16.2302 12.5585 16.2246 12.5609 16.2225C12.5664 16.2176 12.5712 16.2137 12.5729 16.2123C12.5798 16.2065 12.5878 16.2 12.593 16.1959C12.6408 16.1577 12.7933 16.0379 12.915 15.9451C13.0394 15.8503 13.1314 15.7839 13.2269 15.7155C13.2368 15.7085 13.2466 15.7015 13.2564 15.6945C13.3429 15.6326 13.438 15.5646 13.5728 15.4658C13.6552 15.4054 13.7308 15.3832 13.7411 15.4163C13.7512 15.4495 13.6934 15.5247 13.6108 15.5853C13.4686 15.6897 13.3689 15.7609 13.2814 15.8236C13.2718 15.8305 13.2622 15.8373 13.2525 15.8442C13.1599 15.9107 13.0804 15.9682 12.9694 16.0528C12.8109 16.1771 12.695 16.2713 12.5888 16.3577C12.311 16.5836 12.1017 16.7551 11.3814 17.2608C11.1328 17.4346 10.7982 17.6861 10.3729 18.005L10.4107 17.9774C9.63579 18.4106 8.85875 19.3362 7.6679 19.367C7.68174 19.4136 7.68584 19.1932 8.14832 19.6265C8.40699 20.22 8.19572 20.1302 8.25757 20.104C8.24504 20.1293 8.29183 20.044 8.38643 19.9177C8.44447 19.8365 8.51963 19.7316 8.59335 19.5958C8.97302 18.9003 9.42348 18.0043 9.93118 17.2153C9.93793 17.2049 9.94465 17.1946 9.95135 17.1844C10.0976 16.9604 10.2741 16.7246 10.3795 16.6334C11.0037 16.051 11.5517 15.6059 12.0345 15.2448C12.7471 14.7092 13.4791 14.1991 14.2244 13.6929C14.9328 13.2004 15.4289 12.7955 16.0954 12.4751C17.3143 11.8412 18.4242 11.3769 19.8066 10.5598C19.9376 10.4666 20.0694 10.3708 20.2016 10.2704C20.6396 9.85519 21.1085 9.69034 21.4376 8.68187C21.4559 8.58655 21.467 8.48341 21.4644 8.37036C21.4584 8.15456 21.4045 7.88637 21.2029 7.63557C20.8989 7.25766 20.4516 7.21374 20.2747 7.20847C18.718 7.23613 17.9301 7.77819 17.0674 8.1691C17.0662 8.16972 17.065 8.17033 17.0638 8.17095C16.8525 8.27975 16.2848 8.54442 15.4722 8.92478C15.2339 9.03617 14.9728 9.1581 14.6904 9.28974C13.9985 9.61207 13.1793 9.99394 12.2549 10.4138C12.0619 10.5014 11.8873 10.5804 11.7229 10.6542C11.4186 10.7908 11.1409 10.9138 10.8167 11.05C10.3838 11.2294 9.86362 11.4468 9.08214 11.7098C8.61662 11.862 8.06353 12.0304 7.51084 12.0726C6.83437 12.1416 5.82225 12.0854 5.68961 11.9111C5.5968 11.8342 5.62396 11.7471 5.64137 11.949C5.74567 11.6371 6.17243 10.9096 6.45923 10.5749C6.93559 9.9881 7.27559 9.71924 7.5087 9.52914C7.57559 9.47611 7.63314 9.43263 7.68818 9.39186C7.83108 9.28658 7.94364 9.20895 8.09479 9.10855C8.30438 8.97003 8.50822 8.84902 8.71135 8.73865C9.4887 8.33335 10.4432 8.09988 11.665 7.45657C11.7612 7.4058 11.8552 7.38401 11.8782 7.40868C11.9006 7.43358 11.8417 7.49694 11.745 7.54835C10.5106 8.20252 9.5314 8.44402 8.76842 8.84216C8.56616 8.95201 8.36316 9.07262 8.15462 9.21071C7.99958 9.31385 7.8815 9.39572 7.73841 9.50198C7.68562 9.54134 7.63031 9.58357 7.56845 9.63285C7.34372 9.81709 7.01282 10.0795 6.54787 10.6533C6.26984 10.97 5.84424 11.7283 5.75934 11.9566C5.74036 11.6817 5.68418 11.7587 5.77351 11.8278C5.80527 11.9379 6.83847 12.0316 7.50095 11.9548C8.03423 11.9145 8.58 11.7497 9.04055 11.599C9.82336 11.3358 10.3408 11.1192 10.7725 10.9402C11.0823 10.81 11.3506 10.6913 11.6459 10.5589C11.8111 10.4848 11.9854 10.4058 12.1804 10.3174C13.1049 9.89776 13.9264 9.51487 14.6183 9.19258C14.9001 9.06119 15.1607 8.93948 15.3982 8.82841C16.2278 8.44012 16.7593 8.19194 16.9426 8.0975C16.9683 8.0842 16.9938 8.07107 17.019 8.0581C17.8932 7.66617 18.6879 7.1169 20.2795 7.09025C20.4651 7.09547 20.959 7.14338 21.2947 7.5609C21.5335 7.85937 21.5838 8.17246 21.583 8.4162C21.5821 8.52016 21.5708 8.61577 21.5537 8.70447C21.1954 9.79329 20.7236 9.93149 20.2895 10.3513ZM16.2006 2.85411C16.2959 3.11663 16.2501 3.26063 16.2226 3.27466C16.1864 3.28411 16.1755 3.17313 16.1106 2.95472C16.0577 2.68195 15.6683 2.37137 15.4221 2.36971C14.9718 2.31728 14.6745 2.34862 14.4217 2.36722C13.8259 2.42576 13.5515 2.48426 13.1373 2.56167C12.1686 2.75272 11.2658 3.03376 10.4562 3.32743C10.3756 3.35675 10.2966 3.3855 10.2193 3.41367C8.7996 3.93085 7.64509 4.36001 7.03275 4.58175C6.93814 4.616 6.84996 4.6198 6.83999 4.5887C6.82927 4.55792 6.90028 4.5041 6.99498 4.46979C7.60302 4.24961 8.74931 3.82356 10.1641 3.30811C10.2461 3.27822 10.33 3.24769 10.4157 3.2165C11.2269 2.9223 12.1323 2.63982 13.1093 2.44667C13.5147 2.37072 13.7748 2.31479 14.3647 2.25343C14.6313 2.23297 14.9389 2.19514 15.4396 2.25246C15.6912 2.25808 16.1157 2.55391 16.2006 2.85411Z" fill="#060233" fill-opacity="0.83"/>
<path d="M10.7235 14.1312L7.99065 11.3555C7.82326 11.1914 7.62407 11.0633 7.40535 10.9791C7.18662 10.8948 6.95298 10.8562 6.71878 10.8656C6.26294 10.8656 5.82577 11.0467 5.50344 11.369C5.18111 11.6913 5.00003 12.1285 5.00003 12.5844C4.99871 12.8126 5.04287 13.0388 5.12992 13.2498C5.21697 13.4608 5.34518 13.6524 5.50706 13.8133L9.09925 17.4055H21.3883C21.6042 17.4066 21.8181 17.3649 22.0178 17.2828C22.2175 17.2007 22.3989 17.0799 22.5515 16.9272C22.7041 16.7746 22.825 16.5932 22.9071 16.3935C22.9892 16.1939 23.0309 15.9799 23.0297 15.764C23.0297 15.5489 22.9872 15.3359 22.9046 15.1372C22.822 14.9385 22.701 14.7582 22.5484 14.6064C22.3959 14.4547 22.2149 14.3346 22.0158 14.253C21.8167 14.1715 21.6035 14.1301 21.3883 14.1312H10.7235Z" fill="#100436" stroke="#100436" stroke-miterlimit="10"/>
<path d="M9.08203 19.8718V17.4054" stroke="#100436" stroke-miterlimit="10"/>
<path d="M20.5719 19.8718V17.4054" stroke="#100436" stroke-miterlimit="10"/>
<path d="M21.3883 6.74919H6.62427L14.0063 0.999969L21.3883 6.74919Z" fill="#100436" stroke="#100436" stroke-miterlimit="10"/>
<path d="M14.0063 14.1312V6.7406" stroke="#100436" stroke-miterlimit="10"/>
<path d="M14.0063 19.8718V17.4054" stroke="#100436" stroke-miterlimit="10"/>
</g>
<defs>
<filter id="filter0_d_1_245" x="0.243286" y="0.366226" width="27.2865" height="28.3455" filterUnits="userSpaceOnUse" color-interpolation-filters="sRGB">
<feFlood flood-opacity="0" result="BackgroundImageFix"/>
<feColorMatrix in="SourceAlpha" type="matrix" values="0 0 0 0 0 0 0 0 0 0 0 0 0 0 0 0 0 0 127 0" result="hardAlpha"/>
<feOffset dy="4"/>
<feGaussianBlur stdDeviation="2"/>
<feComposite in2="hardAlpha" operator="out"/>
<feColorMatrix type="matrix" values="0 0 0 0 0 0 0 0 0 0 0 0 0 0 0 0 0 0 0.25 0"/>
<feBlend mode="normal" in2="BackgroundImageFix" result="effect1_dropShadow_1_245"/>
<feBlend mode="normal" in="SourceGraphic" in2="effect1_dropShadow_1_245" result="shape"/>
</filter>
</defs>
</svg>
