<svg width="192" height="54" viewBox="0 0 192 54" fill="none" xmlns="http://www.w3.org/2000/svg">
<g filter="url(#filter0_d_3_54)">
<path d="M17.6777 8.41992C17.6543 8.29102 17.6426 8.10937 17.6426 7.875C17.6426 7.62891 17.7715 7.39453 18.0293 7.17188C18.2988 6.94922 18.5918 6.83789 18.9082 6.83789C19.2246 6.83789 19.5469 6.99023 19.875 7.29492C20.2031 7.59961 20.5781 8.19727 21 9.08789C21.4336 9.9668 21.8965 10.7168 22.3887 11.3379L23.3906 12.5859C23.9062 13.2305 24.1641 13.7871 24.1641 14.2559C24.1641 15.2285 23.7305 15.7148 22.8633 15.7148C22.1719 15.7148 21.4805 15.1582 20.7891 14.0449C20.0977 12.9316 19.5117 12.1934 19.0312 11.8301C18.5625 11.4668 18.0176 11.2852 17.3965 11.2852C13.5645 11.2852 11.1211 12.375 10.0664 14.5547C9.91406 14.8477 9.83789 15.1816 9.83789 15.5566C9.83789 16.4238 10.207 17.0977 10.9453 17.5781C11.6836 18.0586 13.0195 18.3926 14.9531 18.5801C18.75 18.9434 21.4863 19.7871 23.1621 21.1113C24.873 22.4824 25.7285 24.3984 25.7285 26.8594C25.7285 28.6406 25.2188 30.2578 24.1992 31.7109C23.1914 33.1641 21.9375 34.2598 20.4375 34.998C18.7148 35.8418 16.6289 36.2637 14.1797 36.2637C13.5234 36.2637 12.8906 36.2227 12.2812 36.1406C12.0586 36.7031 11.8184 37.1074 11.5605 37.3535C11.3145 37.5996 10.998 37.7227 10.6113 37.7227C9.62695 37.7227 9.08789 37.2539 8.99414 36.3164C8.91211 35.3789 8.48438 34.3477 7.71094 33.2227L5.46094 30.0938C4.75781 29.0977 4.35352 28.4355 4.24805 28.1074C4.1543 27.7793 4.10742 27.4688 4.10742 27.1758C4.10742 26.8711 4.21289 26.5898 4.42383 26.332C4.63477 26.0742 4.93945 25.9453 5.33789 25.9453C5.74805 25.9453 6.12891 26.0801 6.48047 26.3496C6.84375 26.6074 7.24805 27.1289 7.69336 27.9141C8.75977 29.8008 9.69141 31.0957 10.4883 31.7988C11.6367 32.8184 13.4473 33.3281 15.9199 33.3281C16.7637 33.3281 17.6309 33.1699 18.5215 32.8535C19.4121 32.5254 20.1504 32.0977 20.7363 31.5703C21.9434 30.457 22.5469 29.0098 22.5469 27.2285C22.5469 25.4473 21.8438 24.1113 20.4375 23.2207C19.043 22.3184 16.7812 21.7207 13.6523 21.4277C8.80078 20.9355 6.375 19.1133 6.375 15.9609C6.375 14.6953 6.98438 13.4531 8.20312 12.2344C10.3008 10.1367 13.459 8.86523 17.6777 8.41992ZM34.7285 18.1934L39.1758 18.0703C39.8672 18.0703 40.3535 18.1992 40.6348 18.457C40.916 18.7031 41.0566 19.0078 41.0566 19.3711C41.0566 19.7344 40.8984 20.0566 40.582 20.3379C40.2656 20.6191 39.7852 20.7598 39.1406 20.7598C38.5078 20.7598 37.623 20.7305 36.4863 20.6719L34.7285 20.6191V29.0566C34.7285 30.8027 34.8516 31.916 35.0977 32.3965C35.3555 32.877 35.6074 33.1758 35.8535 33.293C36.1113 33.4102 36.498 33.4688 37.0137 33.4688C37.5293 33.4688 38.0156 33.2637 38.4727 32.8535C38.9297 32.4316 39.2637 32.1562 39.4746 32.0273C39.6973 31.8867 39.9785 31.8164 40.3184 31.8164C40.6699 31.8164 40.9629 31.9512 41.1973 32.2207C41.4434 32.4902 41.5664 32.8066 41.5664 33.1699C41.5664 33.9316 41.0859 34.6406 40.125 35.2969C39.1758 35.9414 38.1738 36.2637 37.1191 36.2637C35.2793 36.2637 33.9082 35.7891 33.0059 34.8398C32.1152 33.8789 31.6699 32.6191 31.6699 31.0605V20.7422C31.2598 20.7773 30.8086 20.7949 30.3164 20.7949C29.8359 20.7949 29.4375 20.666 29.1211 20.4082C28.8164 20.1504 28.6641 19.8164 28.6641 19.4062C28.6641 18.9844 28.8164 18.6562 29.1211 18.4219C29.4375 18.1875 29.8184 18.0703 30.2637 18.0703C30.7207 18.0703 31.1836 18.082 31.6523 18.1055C31.6406 17.7188 31.6289 17.2617 31.6172 16.7344L31.5469 15.1875C31.5352 14.6719 31.5176 14.2148 31.4941 13.8164C31.4824 13.418 31.4766 13.1543 31.4766 13.0254C31.4766 12.4277 31.6406 11.9824 31.9688 11.6895C32.2969 11.3965 32.707 11.25 33.1992 11.25C34.3242 11.25 34.8867 11.9004 34.8867 13.2012L34.7285 18.1934ZM56.6836 28.6875C54.7852 28.3242 53.0977 28.1426 51.6211 28.1426C50.1562 28.1426 49.0723 28.4355 48.3691 29.0215C47.6777 29.5957 47.332 30.252 47.332 30.9902C47.332 31.7285 47.6543 32.3379 48.2988 32.8184C48.9434 33.2871 49.8457 33.5215 51.0059 33.5215C53.3848 33.5215 55.2773 32.7539 56.6836 31.2188V28.6875ZM57.0879 33.9434C55.7988 35.4902 53.6602 36.2637 50.6719 36.2637C48.6797 36.2637 47.0918 35.8066 45.9082 34.8926C44.7363 33.9785 44.1504 32.7422 44.1504 31.1836C44.1504 28.5938 45.5859 26.9062 48.457 26.1211C49.4297 25.8633 50.6836 25.7344 52.2188 25.7344C53.7656 25.7344 55.2539 25.9102 56.6836 26.2617V24.3281C56.6836 22.3945 55.9102 21.2109 54.3633 20.7773C53.8125 20.6133 53.0742 20.5312 52.1484 20.5312C50.168 20.5312 49.0254 21.0586 48.7207 22.1133C48.5332 22.6758 48.1992 23.0801 47.7188 23.3262C47.5078 23.4316 47.2676 23.4844 46.998 23.4844C45.8848 23.4844 45.3281 22.8867 45.3281 21.6914C45.3281 20.6719 45.9961 19.7695 47.332 18.9844C48.6797 18.1992 50.3848 17.8066 52.4473 17.8066C55.9395 17.8066 58.1953 19.043 59.2148 21.5156C59.5547 22.3594 59.7246 23.3555 59.7246 24.5039V29.0566C59.7246 30.6504 59.7891 31.7227 59.918 32.2734C60.0469 32.8125 60.2871 33.1934 60.6387 33.416C61.2598 33.8145 61.5703 34.2773 61.5703 34.8047C61.5703 35.7773 60.9551 36.2637 59.7246 36.2637C58.5059 36.2637 57.627 35.4902 57.0879 33.9434ZM82.1543 18.0703C83.1152 18.0703 83.5957 18.4688 83.5957 19.2656C83.5957 19.6641 83.4668 19.9512 83.209 20.127C82.9629 20.3027 82.7344 20.4492 82.5234 20.5664C81.6445 21.0352 80.7539 22.4004 79.8516 24.6621L74.332 38.1973C73.2422 40.9395 72.2578 42.8379 71.3789 43.8926C70.5 44.959 69.3574 45.4922 67.9512 45.4922C66.5566 45.4922 65.4668 45.123 64.6816 44.3848C63.9082 43.6465 63.5215 42.832 63.5215 41.9414C63.5215 41.0508 63.7031 40.3652 64.0664 39.8848C64.4414 39.4043 64.9102 39.1641 65.4727 39.1641C66.5273 39.1641 67.0547 39.6387 67.0547 40.5879C67.0547 40.8223 67.002 41.0566 66.8965 41.291C66.8027 41.5254 66.7559 41.7422 66.7559 41.9414C66.7559 42.1523 66.873 42.3398 67.1074 42.5039C67.3535 42.6797 67.6406 42.7676 67.9688 42.7676C68.6367 42.7676 69.2988 42.2695 69.9551 41.2734C70.623 40.2773 71.4551 38.4375 72.4512 35.7539L67.3711 24.6621C66.4453 22.6816 65.4727 21.3281 64.4531 20.6016C63.7852 20.1211 63.4512 19.6523 63.4512 19.1953C63.4512 18.4453 63.9375 18.0703 64.9102 18.0703L66.8086 18.1934L69.9551 17.9648C70.5176 17.9648 70.9453 18.0762 71.2383 18.2988C71.5312 18.5215 71.6777 18.7969 71.6777 19.125C71.6777 20.1914 70.7695 20.7246 68.9531 20.7246L73.9805 32.3262L78.2871 20.7246H78.0234C76.1953 20.7246 75.2812 20.1914 75.2812 19.125C75.2812 18.7969 75.4219 18.5215 75.7031 18.2988C75.9844 18.0762 76.4062 17.9648 76.9688 17.9648L80.1504 18.1934L82.1543 18.0703ZM92.6133 33.4512C92.9062 33.4863 93.2402 33.5156 93.6152 33.5391L94.7578 33.5742C95.3906 33.6094 96.3281 33.627 97.5703 33.627C103.359 33.627 106.254 31.5293 106.254 27.334C106.254 25.623 105.609 24.3223 104.32 23.4316C103.031 22.541 101.303 22.0957 99.1348 22.0957H92.6133V33.4512ZM97.5176 19.4941C100.424 19.4941 102.164 18.6973 102.738 17.1035C102.926 16.5879 103.02 16.043 103.02 15.4688C103.02 14.4492 102.621 13.5645 101.824 12.8145C101.027 12.0645 99.9668 11.625 98.6426 11.4961C97.3301 11.3555 96.0996 11.2852 94.9512 11.2852C93.8145 11.2852 93.0352 11.3027 92.6133 11.3379V19.4941H97.5176ZM103.67 20.4082C107.654 21.0762 109.646 23.502 109.646 27.6855C109.646 28.752 109.406 29.8242 108.926 30.9023C108.445 31.9805 107.695 32.918 106.676 33.7148C104.496 35.4141 101.285 36.2637 97.043 36.2637C96.5977 36.2637 96.1055 36.2461 95.5664 36.2109L92.1738 36.0352C91.7285 36.0117 91.2832 36 90.8379 36L87.3926 36.2285C85.9512 36.2285 85.2305 35.7012 85.2305 34.6465C85.2305 33.5801 86.0859 33.0469 87.7969 33.0469C88.3008 33.0469 88.8223 33.0703 89.3613 33.1172V11.6719L88.7988 11.7422C87.9199 11.8945 87.1875 11.9707 86.6016 11.9707C86.0273 11.9707 85.5586 11.8359 85.1953 11.5664C84.832 11.2852 84.6504 10.916 84.6504 10.459C84.6504 9.5918 85.3594 9.05859 86.7773 8.85938C87.8086 8.73047 89.9941 8.66602 93.334 8.66602C96.6738 8.66602 98.9062 8.75977 100.031 8.94727C102.105 9.28711 103.699 10.0313 104.812 11.1797C105.926 12.3164 106.482 13.6875 106.482 15.293C106.482 16.8984 105.967 18.2812 104.936 19.4414C104.584 19.8281 104.162 20.1504 103.67 20.4082ZM130.107 18.0703C131.068 18.0703 131.549 18.4688 131.549 19.2656C131.549 19.6641 131.42 19.9512 131.162 20.127C130.916 20.3027 130.688 20.4492 130.477 20.5664C129.598 21.0352 128.707 22.4004 127.805 24.6621L122.285 38.1973C121.195 40.9395 120.211 42.8379 119.332 43.8926C118.453 44.959 117.311 45.4922 115.904 45.4922C114.51 45.4922 113.42 45.123 112.635 44.3848C111.861 43.6465 111.475 42.832 111.475 41.9414C111.475 41.0508 111.656 40.3652 112.02 39.8848C112.395 39.4043 112.863 39.1641 113.426 39.1641C114.48 39.1641 115.008 39.6387 115.008 40.5879C115.008 40.8223 114.955 41.0566 114.85 41.291C114.756 41.5254 114.709 41.7422 114.709 41.9414C114.709 42.1523 114.826 42.3398 115.061 42.5039C115.307 42.6797 115.594 42.7676 115.922 42.7676C116.59 42.7676 117.252 42.2695 117.908 41.2734C118.576 40.2773 119.408 38.4375 120.404 35.7539L115.324 24.6621C114.398 22.6816 113.426 21.3281 112.406 20.6016C111.738 20.1211 111.404 19.6523 111.404 19.1953C111.404 18.4453 111.891 18.0703 112.863 18.0703L114.762 18.1934L117.908 17.9648C118.471 17.9648 118.898 18.0762 119.191 18.2988C119.484 18.5215 119.631 18.7969 119.631 19.125C119.631 20.1914 118.723 20.7246 116.906 20.7246L121.934 32.3262L126.24 20.7246H125.977C124.148 20.7246 123.234 20.1914 123.234 19.125C123.234 18.7969 123.375 18.5215 123.656 18.2988C123.938 18.0762 124.359 17.9648 124.922 17.9648L128.104 18.1934L130.107 18.0703ZM139.635 18.1934L144.082 18.0703C144.773 18.0703 145.26 18.1992 145.541 18.457C145.822 18.7031 145.963 19.0078 145.963 19.3711C145.963 19.7344 145.805 20.0566 145.488 20.3379C145.172 20.6191 144.691 20.7598 144.047 20.7598C143.414 20.7598 142.529 20.7305 141.393 20.6719L139.635 20.6191V29.0566C139.635 30.8027 139.758 31.916 140.004 32.3965C140.262 32.877 140.514 33.1758 140.76 33.293C141.018 33.4102 141.404 33.4688 141.92 33.4688C142.436 33.4688 142.922 33.2637 143.379 32.8535C143.836 32.4316 144.17 32.1562 144.381 32.0273C144.604 31.8867 144.885 31.8164 145.225 31.8164C145.576 31.8164 145.869 31.9512 146.104 32.2207C146.35 32.4902 146.473 32.8066 146.473 33.1699C146.473 33.9316 145.992 34.6406 145.031 35.2969C144.082 35.9414 143.08 36.2637 142.025 36.2637C140.186 36.2637 138.814 35.7891 137.912 34.8398C137.021 33.8789 136.576 32.6191 136.576 31.0605V20.7422C136.166 20.7773 135.715 20.7949 135.223 20.7949C134.742 20.7949 134.344 20.666 134.027 20.4082C133.723 20.1504 133.57 19.8164 133.57 19.4062C133.57 18.9844 133.723 18.6562 134.027 18.4219C134.344 18.1875 134.725 18.0703 135.17 18.0703C135.627 18.0703 136.09 18.082 136.559 18.1055C136.547 17.7188 136.535 17.2617 136.523 16.7344L136.453 15.1875C136.441 14.6719 136.424 14.2148 136.4 13.8164C136.389 13.418 136.383 13.1543 136.383 13.0254C136.383 12.4277 136.547 11.9824 136.875 11.6895C137.203 11.3965 137.613 11.25 138.105 11.25C139.23 11.25 139.793 11.9004 139.793 13.2012L139.635 18.1934ZM152.15 25.3828L153.363 25.418C153.762 25.4297 155.039 25.4355 157.195 25.4355C159.352 25.4355 160.764 25.2598 161.432 24.9082C162.1 24.5566 162.434 24.0234 162.434 23.3086C162.434 22.5938 162.029 21.9609 161.221 21.4102C160.412 20.8594 159.516 20.584 158.531 20.584C156.809 20.584 155.391 21.0234 154.277 21.9023C153.164 22.7812 152.455 23.9414 152.15 25.3828ZM163.945 30.4629C164.977 30.4629 165.492 30.9258 165.492 31.8516C165.492 32.2734 165.328 32.748 165 33.2754C164.684 33.791 164.215 34.2715 163.594 34.7168C162.141 35.748 160.236 36.2637 157.881 36.2637C155.537 36.2637 153.504 35.4727 151.781 33.8906C150.926 33.1055 150.24 32.1387 149.725 30.9902C149.209 29.8418 148.951 28.582 148.951 27.2109C148.951 24.5391 149.83 22.3066 151.588 20.5137C153.346 18.709 155.561 17.8066 158.232 17.8066C160.459 17.8066 162.223 18.3516 163.523 19.4414C164.836 20.5195 165.492 21.8496 165.492 23.4316C165.492 25.0137 164.854 26.1973 163.576 26.9824C162.299 27.7559 159.873 28.1426 156.299 28.1426C155.35 28.1426 153.943 28.1074 152.08 28.0371C152.291 29.8535 152.994 31.2188 154.189 32.1328C155.385 33.0352 156.633 33.4863 157.934 33.4863C159.234 33.4863 160.26 33.3457 161.01 33.0645C161.771 32.7715 162.316 32.2676 162.645 31.5527C162.984 30.8262 163.418 30.4629 163.945 30.4629Z" fill="#100436"/>
</g>
<g filter="url(#filter1_d_3_54)">
<path d="M170.634 21.7144C171.152 21.527 171.78 21.2577 172.297 21.0891C172.304 21.0867 172.312 21.0843 172.319 21.0819C172.53 21.0132 172.749 20.9456 173.01 20.8654C173.043 20.8551 173.078 20.8445 173.113 20.8336C173.335 20.7657 173.595 20.6857 173.915 20.5854C174.039 20.5468 174.17 20.5069 174.313 20.465C176.001 19.9568 177.323 19.7513 177.699 19.7329C177.886 19.7175 178.081 19.7153 178.22 19.7313C177.821 19.689 177.758 19.1356 177.786 19.3363C177.93 18.9802 177.318 19.8124 176.847 20.1468C176.758 20.221 176.667 20.2963 176.573 20.3724C176.496 20.4354 176.417 20.4649 176.394 20.4411C176.372 20.4167 176.416 20.3481 176.493 20.2857C176.585 20.2112 176.672 20.1387 176.759 20.0662C176.759 20.0659 176.76 20.0655 176.76 20.0652C177.235 19.7411 177.86 18.8419 177.668 19.3261C177.632 19.1259 177.716 19.7998 178.202 19.8486C178.087 19.8356 177.911 19.8362 177.745 19.8489C177.373 19.8635 176.034 20.0674 174.313 20.5887C174.186 20.6265 174.069 20.6621 173.956 20.6972C173.612 20.805 173.336 20.8902 173.102 20.9619C173.068 20.9725 173.034 20.9828 173.002 20.9928C173.001 20.993 173 20.9932 173 20.9934C172.736 21.0746 172.528 21.1386 172.325 21.2048C172.321 21.2062 172.317 21.2076 172.312 21.2091C171.789 21.3797 171.174 21.6446 170.672 21.8264C170.578 21.8604 170.489 21.8644 170.48 21.8332C170.469 21.8026 170.54 21.7485 170.634 21.7144ZM181.369 24.7877C181.834 24.5656 182.51 24.3229 183.046 24.3316C183.106 24.3324 183.165 24.336 183.228 24.3411C183.334 24.3511 183.329 24.3737 183.31 24.3619C183.293 24.3432 183.308 24.3959 183.285 24.4576C183.265 24.5124 183.181 24.6244 183.121 24.6835C182.975 24.8353 182.776 25.0154 182.519 25.2212C182.46 25.2686 182.398 25.3172 182.333 25.3672C182.249 25.431 182.16 25.497 182.067 25.5648C181.961 25.639 181.779 25.7389 181.6 25.8308C180.491 26.3872 179.737 26.7483 179.215 27.0183C179.107 27.0731 179.007 27.1247 178.912 27.1732C178.912 27.1732 178.912 27.1733 178.912 27.1734C178.775 27.2437 178.651 27.3071 178.536 27.3655C178.346 27.4614 178.182 27.5472 178.024 27.6282C177.564 27.8626 177.2 28.1101 176.801 28.3483C176.692 28.413 176.577 28.4829 176.457 28.5558C175.936 28.8745 175.361 29.2864 174.972 29.606C174.947 29.627 174.919 29.6498 174.892 29.6726C174.546 29.9609 174.114 30.3135 173.481 30.8745C173.136 31.1806 172.824 31.4824 172.556 31.7278C172.36 31.9094 172.239 32.0744 172.122 32.2318C172.025 32.3645 171.94 32.4907 171.861 32.6122C171.663 32.9185 171.501 33.1945 171.359 33.4575C171.024 34.0783 170.759 34.6007 170.528 35.0246C170.452 35.1832 170.254 35.3408 170.107 35.7204C170.127 35.786 169.907 35.8404 170.177 36.356C170.571 36.7074 170.663 36.5527 170.76 36.5814C171.071 36.565 171.34 36.5256 171.57 36.4725C172.157 36.3301 172.454 36.1605 172.659 36.066C172.721 36.0354 172.774 36.008 172.824 35.981C173.261 35.74 173.598 35.5021 174.015 35.2427C174.074 35.2057 174.132 35.1701 174.194 35.1318C174.203 35.1263 174.228 35.1075 174.236 35.1014C174.271 35.0762 174.31 35.0485 174.347 35.0222C174.684 34.7798 174.919 34.584 175.101 34.4265C175.18 34.3574 175.249 34.2957 175.314 34.2376C175.315 34.2365 175.316 34.2354 175.317 34.2343C175.326 34.2262 175.335 34.2182 175.344 34.2101C175.351 34.2041 175.358 34.1979 175.364 34.1919C175.367 34.1892 175.369 34.1869 175.37 34.1852C175.372 34.1838 175.373 34.1827 175.373 34.182C175.373 34.1819 175.374 34.1817 175.374 34.1816C175.385 34.1691 175.396 34.1591 175.398 34.1571C175.402 34.1535 175.406 34.1505 175.408 34.1489C175.417 34.1405 175.429 34.13 175.438 34.1231C175.459 34.1051 175.496 34.0746 175.553 34.0271C175.603 33.9847 175.649 33.9435 175.707 33.8913C175.71 33.888 175.714 33.8848 175.718 33.8815C175.774 33.8308 175.84 33.7715 175.924 33.698C176 33.6312 176.087 33.5903 176.118 33.6068C176.149 33.6234 176.112 33.691 176.036 33.7579C175.957 33.8272 175.895 33.8826 175.839 33.9335C175.835 33.9367 175.832 33.9399 175.828 33.9431C175.769 33.9959 175.713 34.0462 175.652 34.0987C175.631 34.1164 175.61 34.1345 175.59 34.1512C175.555 34.1818 175.515 34.2177 175.467 34.2604C175.458 34.269 175.448 34.2777 175.438 34.2868C175.373 34.3452 175.298 34.413 175.212 34.4878C175.009 34.6638 174.749 34.8799 174.38 35.1444C174.356 35.1617 174.333 35.1786 174.31 35.195C174.3 35.2021 174.271 35.2239 174.261 35.2304C174.189 35.2744 174.121 35.3166 174.053 35.3594C173.635 35.6192 173.276 35.876 172.795 36.1353C172.728 36.1707 172.662 36.2031 172.59 36.2369C172.375 36.3309 172.103 36.4732 171.543 36.6003C171.324 36.6475 171.067 36.6837 170.769 36.6994C170.661 36.6642 170.565 36.8518 170.087 36.4333C169.756 35.8083 170.024 35.7514 169.995 35.6831C170.157 35.2658 170.36 35.1093 170.424 34.9688C170.651 34.5532 170.913 34.0359 171.247 33.4164C171.397 33.139 171.57 32.8432 171.775 32.5286C171.853 32.408 171.937 32.2845 172.03 32.1574C172.149 31.9975 172.271 31.8307 172.476 31.6402C172.734 31.4048 173.037 31.1111 173.37 30.8138C173.992 30.2602 174.411 29.916 174.758 29.6261C174.77 29.6162 174.782 29.6063 174.794 29.5963C174.809 29.5839 174.824 29.5716 174.839 29.5593C175.241 29.2274 175.836 28.7985 176.391 28.4572C176.534 28.3698 176.671 28.2845 176.805 28.2044C177.189 27.9733 177.55 27.7337 178.012 27.5009C178.156 27.4279 178.301 27.3519 178.483 27.26C178.585 27.2082 178.697 27.1506 178.825 27.0847C178.924 27.0342 179.031 26.9794 179.15 26.9188C179.681 26.6443 180.449 26.2766 181.564 25.7163C181.733 25.6296 181.907 25.5323 181.996 25.47C182.088 25.4037 182.175 25.3389 182.258 25.2753C182.324 25.2248 182.388 25.1752 182.449 25.126C182.702 24.9231 182.925 24.7226 183.066 24.5656C183.108 24.5234 183.159 24.4427 183.167 24.4347C183.188 24.3921 183.165 24.3702 183.217 24.4371C183.266 24.4869 183.321 24.4705 183.223 24.4597C183.153 24.4539 183.089 24.4501 183.026 24.4498C182.527 24.4473 181.903 24.6703 181.499 24.861C181.454 24.8818 181.414 24.9017 181.37 24.9228C181.096 25.0559 180.821 25.199 180.578 25.3425C180.494 25.3925 180.41 25.4438 180.335 25.4933C179.066 26.4441 176.447 27.4837 174.7 28.1781C174.677 28.1874 174.654 28.1966 174.631 28.2057C174.53 28.2459 174.427 28.2862 174.329 28.3244C172.738 28.9519 171.422 29.3787 170.624 29.4239C170.511 29.4336 170.417 29.4403 170.341 29.4452C170.314 29.4469 170.29 29.4484 170.269 29.4496C170.249 29.4507 170.231 29.4518 170.216 29.4526C169.984 29.4645 169.775 29.4732 169.548 29.4721C169.536 29.472 169.524 29.4719 169.511 29.4717C169.27 29.4672 169.012 29.4589 168.668 29.384C168.379 29.3123 168.042 29.2238 167.7 28.8937C167.561 28.7244 167.244 28.512 167.243 27.8597C167.456 26.8897 167.681 26.7111 167.924 26.2673C168 26.148 168.078 26.0314 168.156 25.9219C168.156 25.9215 168.156 25.9212 168.156 25.9209C168.498 25.4391 168.85 25.049 169.21 24.7109C169.871 24.0971 170.386 23.7656 170.786 23.519C170.851 23.4796 170.915 23.4422 170.977 23.4064C171.04 23.3701 171.102 23.3365 171.161 23.306C171.425 23.1694 171.646 23.0757 171.868 22.9867C172.285 22.8212 172.643 22.6846 172.984 22.5394C173.014 22.5266 173.044 22.5138 173.074 22.5007C173.44 22.3429 173.787 22.1784 174.139 21.9899C174.221 21.9463 174.301 21.9318 174.319 21.9593C174.336 21.9868 174.284 22.0466 174.201 22.0908C173.855 22.2764 173.513 22.4398 173.146 22.599C173.116 22.612 173.084 22.6254 173.054 22.6385C172.712 22.7846 172.348 22.9239 171.926 23.0907C171.714 23.1757 171.508 23.2626 171.256 23.3903C171.186 23.4262 171.112 23.4655 171.034 23.5102C170.982 23.5403 170.928 23.5719 170.873 23.6051C170.472 23.8502 169.955 24.1814 169.297 24.7916C168.946 25.121 168.603 25.4992 168.264 25.9729C168.188 26.0807 168.109 26.1964 168.034 26.3158C167.793 26.7468 167.561 26.9614 167.361 27.8672C167.361 28.4477 167.648 28.6488 167.783 28.8104C168.095 29.1111 168.41 29.1984 168.686 29.267C169.001 29.3364 169.241 29.347 169.478 29.3526C169.491 29.3529 169.505 29.3531 169.518 29.3532C169.739 29.3555 169.958 29.3474 170.201 29.335C170.233 29.3333 170.275 29.331 170.324 29.3279C170.402 29.323 170.498 29.3162 170.614 29.3062C171.395 29.2624 172.699 28.8404 174.285 28.2148C174.385 28.176 174.489 28.135 174.592 28.0941C174.598 28.0916 174.604 28.0891 174.611 28.0866C175.962 27.5449 176.707 27.2193 177.258 26.9465C177.691 26.7301 178.019 26.5778 178.289 26.4549C178.34 26.4314 178.388 26.4095 178.435 26.3882C178.636 26.297 178.793 26.2251 178.949 26.1467C179.42 25.9102 179.747 25.7201 180.133 25.4673C180.253 25.3883 180.39 25.3058 180.528 25.2266C180.76 25.0926 181.01 24.9635 181.239 24.8509C181.24 24.8506 181.24 24.8504 181.241 24.8501C181.283 24.8293 181.328 24.8077 181.369 24.7877ZM177.008 32.7131C177.088 32.6494 177.168 32.6199 177.188 32.6455C177.207 32.6719 177.16 32.7435 177.08 32.8071C176.891 32.9575 176.7 33.1095 176.511 33.2609C176.432 33.3244 176.351 33.3552 176.331 33.3293C176.311 33.3034 176.36 33.2306 176.439 33.167C176.629 33.0155 176.819 32.8635 177.008 32.7131ZM180.757 24.3985C180.85 24.3533 180.948 24.3364 180.982 24.3571C181.015 24.3783 180.967 24.431 180.878 24.4742C180.829 24.4979 180.753 24.5355 180.647 24.5894C180.559 24.6342 180.451 24.69 180.323 24.7565C179.393 25.2404 177.519 26.2511 175.479 27.1777C175.283 27.2663 175.11 27.3447 174.942 27.4197C174.663 27.5443 174.409 27.6681 174.12 27.8038C173.665 28.0141 173.132 28.2689 172.252 28.5597C171.722 28.7302 171.169 28.8855 170.583 28.932C169.782 28.9453 168.956 29.1645 168.076 28.5203C167.959 28.388 167.773 28.2313 167.778 27.8938C168.388 26.0213 169.739 24.8196 171.278 23.9526C172.781 23.2503 174.3 22.8898 175.55 21.9268C176.568 21.1535 177.86 20.255 178.373 19.3872C178.382 19.2824 178.363 19.1812 178.344 19.1633C178.334 19.1535 178.341 19.156 178.306 19.1497C176.805 19.0579 175.214 19.5463 173.727 20.07C173.617 20.1102 173.51 20.1489 173.401 20.1889C171.983 20.7023 169.375 21.6182 168.756 21.8353C168.66 21.869 168.568 21.8713 168.561 21.8392C168.55 21.8086 168.624 21.7565 168.72 21.7229C169.331 21.5083 171.932 20.5949 173.345 20.0833C173.46 20.0413 173.571 20.001 173.687 19.9589C175.186 19.4331 176.767 18.9381 178.324 19.0325C178.375 19.0393 178.408 19.056 178.435 19.0868C178.486 19.1454 178.501 19.2739 178.491 19.3974C177.909 20.4197 176.654 21.2321 175.631 22.0383C174.376 23.0237 172.807 23.4227 171.368 24.1165C169.878 24.9582 168.557 26.2439 168.018 27.9092C168.011 28.0959 168.139 28.2326 168.249 28.348C168.924 28.8535 169.79 28.7066 170.561 28.6746C171.116 28.629 171.654 28.4778 172.179 28.3087C173.049 28.0203 173.594 27.8195 174.058 27.6501C174.342 27.5447 174.594 27.4451 174.865 27.3243C175.033 27.2491 175.207 27.1705 175.405 27.0812C177.476 26.1407 179.374 25.1132 180.274 24.6449C180.368 24.5961 180.446 24.5557 180.517 24.5191C180.624 24.4646 180.708 24.4225 180.757 24.3985ZM182.848 25.7621C182.722 25.8646 182.588 25.9688 182.446 26.0749C181.484 26.6863 180.253 27.2311 179.16 27.7808C179.048 27.8358 178.938 27.8902 178.828 27.9443C178.339 28.1818 177.92 28.442 177.582 28.6867C177.317 28.8767 177.087 29.039 176.873 29.1723C176.573 29.3608 176.321 29.513 176.073 29.6652C176.069 29.668 176.064 29.6708 176.059 29.6736C175.638 29.9339 175.213 30.1954 174.567 30.6803C174.084 31.0407 173.498 31.5421 172.911 32.1177C172.709 32.3128 172.546 32.5625 172.389 32.811C172.388 32.8117 172.388 32.8124 172.387 32.8132C171.861 33.6716 171.469 34.6213 171.099 35.3307C171.05 35.4245 170.994 35.5063 170.942 35.5796C170.85 35.7073 170.763 35.8217 170.728 35.9274C170.731 36.0875 170.588 35.8688 170.71 35.9249C172.165 35.8626 172.993 34.8618 173.748 34.4745C174.194 34.152 174.547 33.8963 174.811 33.7114C175.622 33.1429 176.434 32.4422 177.265 31.7883C177.761 31.3973 178.263 31.035 178.794 30.7457C178.961 30.6683 178.757 30.9174 178.479 31.0775C178.469 31.0836 178.459 31.0896 178.449 31.0957C178.354 31.1539 178.273 31.2055 178.16 31.2838C177.999 31.3989 177.881 31.4893 177.774 31.5721C177.709 31.6219 177.557 31.7385 177.353 31.8987C176.664 32.4361 175.385 33.4569 174.827 33.8472C174.581 34.0191 174.259 34.2738 173.843 34.6023C173.126 34.9969 172.335 36.0788 170.73 36.1822C170.618 36.2831 170.363 35.9045 170.481 35.8451C170.54 35.6749 170.645 35.5482 170.733 35.422C170.782 35.3534 170.831 35.2837 170.872 35.2093C171.255 34.5284 171.743 33.6429 172.275 32.7693C172.277 32.7666 172.278 32.764 172.28 32.7613C172.442 32.5047 172.607 32.2474 172.831 32.03C173.411 31.4617 174.007 30.9507 174.494 30.587C175.167 30.0823 175.61 29.8105 176.041 29.5449C176.045 29.5423 176.049 29.5397 176.054 29.5371C176.292 29.3915 176.528 29.2487 176.807 29.074C177.018 28.9429 177.244 28.7837 177.512 28.5915C177.856 28.3426 178.284 28.0769 178.774 27.8386C178.891 27.7813 179.008 27.7236 179.127 27.6655C180.216 27.1183 181.452 26.5679 182.375 25.9801C182.512 25.8783 182.641 25.7784 182.761 25.6805C182.84 25.6157 182.923 25.5793 182.948 25.6014C182.972 25.6233 182.928 25.6963 182.848 25.7621ZM183.289 26.3513C183.158 26.4653 183.026 26.5735 182.895 26.6784C181.52 27.5848 180.436 28.0618 179.206 28.6952C178.551 29.0074 178.08 29.3777 177.341 29.8663C176.579 30.3552 175.83 30.8376 175.107 31.3381C174.624 31.6994 174.085 32.1366 173.459 32.7208C173.371 32.7952 173.193 33.0295 173.05 33.25C173.043 33.2597 173.037 33.2696 173.03 33.2795C172.528 34.0604 172.077 34.9553 171.697 35.6517C171.62 35.7945 171.542 35.9033 171.483 35.9852C171.387 36.113 171.347 36.1936 171.37 36.1414C171.3 36.1634 171.551 36.2592 171.245 35.5586C170.699 35.0449 170.683 35.3034 170.659 35.2492C171.777 35.2301 172.545 34.3352 173.344 33.8796L173.3 33.9121C173.744 33.5785 174.099 33.3118 174.365 33.1255C175.053 32.6424 175.233 32.4941 175.502 32.2758C175.509 32.2698 175.517 32.2639 175.524 32.258C175.524 32.2576 175.525 32.2571 175.525 32.2566C175.533 32.248 175.541 32.2409 175.544 32.2374C175.552 32.2302 175.558 32.2246 175.561 32.2225C175.566 32.2176 175.571 32.2137 175.573 32.2123C175.58 32.2065 175.588 32.2 175.593 32.1959C175.641 32.1577 175.793 32.0379 175.915 31.9451C176.039 31.8503 176.131 31.7839 176.227 31.7155C176.237 31.7085 176.247 31.7015 176.256 31.6945C176.343 31.6326 176.438 31.5646 176.573 31.4658C176.655 31.4054 176.731 31.3832 176.741 31.4163C176.751 31.4495 176.693 31.5247 176.611 31.5853C176.469 31.6897 176.369 31.7609 176.281 31.8236C176.272 31.8305 176.262 31.8373 176.252 31.8442C176.16 31.9107 176.08 31.9682 175.969 32.0528C175.811 32.1771 175.695 32.2713 175.589 32.3577C175.311 32.5836 175.102 32.7551 174.381 33.2608C174.133 33.4346 173.798 33.6861 173.373 34.005L173.411 33.9774C172.636 34.4106 171.859 35.3362 170.668 35.367C170.682 35.4136 170.686 35.1932 171.148 35.6265C171.407 36.22 171.196 36.1302 171.258 36.104C171.245 36.1293 171.292 36.044 171.386 35.9177C171.444 35.8365 171.52 35.7316 171.593 35.5958C171.973 34.9003 172.423 34.0043 172.931 33.2153C172.938 33.2049 172.945 33.1946 172.951 33.1844C173.098 32.9604 173.274 32.7246 173.379 32.6334C174.004 32.051 174.552 31.6059 175.034 31.2448C175.747 30.7092 176.479 30.1991 177.224 29.6929C177.933 29.2004 178.429 28.7955 179.095 28.4751C180.314 27.8412 181.424 27.3769 182.806 26.5598C182.938 26.4666 183.069 26.3709 183.202 26.2704C183.64 25.8552 184.108 25.6903 184.437 24.6819C184.456 24.5866 184.467 24.4834 184.464 24.3704C184.458 24.1546 184.404 23.8864 184.203 23.6356C183.899 23.2577 183.452 23.2137 183.275 23.2085C181.718 23.2361 180.93 23.7782 180.067 24.1691C180.066 24.1697 180.065 24.1703 180.064 24.1709C179.852 24.2798 179.285 24.5444 178.472 24.9248C178.234 25.0362 177.973 25.1581 177.69 25.2897C176.998 25.6121 176.179 25.9939 175.255 26.4138C175.062 26.5014 174.887 26.5804 174.723 26.6542C174.419 26.7908 174.141 26.9138 173.817 27.05C173.384 27.2294 172.864 27.4468 172.082 27.7098C171.617 27.862 171.063 28.0304 170.511 28.0726C169.834 28.1416 168.822 28.0854 168.69 27.9111C168.597 27.8342 168.624 27.7471 168.641 27.949C168.746 27.6371 169.172 26.9096 169.459 26.5749C169.936 25.9881 170.276 25.7192 170.509 25.5291C170.576 25.4761 170.633 25.4326 170.688 25.3919C170.831 25.2866 170.944 25.2089 171.095 25.1085C171.304 24.97 171.508 24.849 171.711 24.7386C172.489 24.3334 173.443 24.0999 174.665 23.4566C174.761 23.4058 174.855 23.384 174.878 23.4087C174.901 23.4336 174.842 23.4969 174.745 23.5484C173.51 24.2025 172.531 24.444 171.768 24.8422C171.566 24.952 171.363 25.0726 171.155 25.2107C171 25.3138 170.881 25.3957 170.738 25.502C170.686 25.5413 170.63 25.5836 170.568 25.6328C170.344 25.8171 170.013 26.0795 169.548 26.6533C169.27 26.97 168.844 27.7283 168.759 27.9566C168.74 27.6817 168.684 27.7587 168.773 27.8278C168.805 27.9379 169.838 28.0316 170.501 27.9548C171.034 27.9145 171.58 27.7497 172.04 27.599C172.823 27.3358 173.341 27.1192 173.772 26.9402C174.082 26.81 174.351 26.6913 174.646 26.5589C174.811 26.4848 174.985 26.4058 175.18 26.3174C176.105 25.8978 176.926 25.5149 177.618 25.1926C177.9 25.0612 178.161 24.9395 178.398 24.8284C179.228 24.4401 179.759 24.1919 179.943 24.0975C179.968 24.0842 179.994 24.0711 180.019 24.0581C180.893 23.6662 181.688 23.1169 183.279 23.0902C183.465 23.0955 183.959 23.1434 184.295 23.5609C184.533 23.8594 184.584 24.1725 184.583 24.4162C184.582 24.5202 184.571 24.6158 184.554 24.7045C184.195 25.7933 183.724 25.9315 183.289 26.3513ZM179.201 18.8541C179.296 19.1166 179.25 19.2606 179.223 19.2747C179.186 19.2841 179.175 19.1731 179.111 18.9547C179.058 18.682 178.668 18.3714 178.422 18.3697C177.972 18.3173 177.674 18.3486 177.422 18.3672C176.826 18.4258 176.551 18.4843 176.137 18.5617C175.169 18.7527 174.266 19.0338 173.456 19.3274C173.376 19.3567 173.297 19.3855 173.219 19.4137C171.8 19.9308 170.645 20.36 170.033 20.5817C169.938 20.616 169.85 20.6198 169.84 20.5887C169.829 20.5579 169.9 20.5041 169.995 20.4698C170.603 20.2496 171.749 19.8236 173.164 19.3081C173.246 19.2782 173.33 19.2477 173.416 19.2165C174.227 18.9223 175.132 18.6398 176.109 18.4467C176.515 18.3707 176.775 18.3148 177.365 18.2534C177.631 18.233 177.939 18.1951 178.439 18.2525C178.691 18.2581 179.116 18.5539 179.201 18.8541Z" fill="#060233" fill-opacity="0.83"/>
<path d="M173.723 30.1312L170.991 27.3554C170.823 27.1914 170.624 27.0633 170.405 26.9791C170.187 26.8948 169.953 26.8562 169.719 26.8656C169.263 26.8656 168.826 27.0467 168.503 27.369C168.181 27.6913 168 28.1285 168 28.5843C167.999 28.8126 168.043 29.0388 168.13 29.2498C168.217 29.4608 168.345 29.6523 168.507 29.8133L172.099 33.4054H184.388C184.604 33.4066 184.818 33.3649 185.018 33.2828C185.217 33.2007 185.399 33.0799 185.552 32.9272C185.704 32.7746 185.825 32.5932 185.907 32.3935C185.989 32.1939 186.031 31.9799 186.03 31.764C186.03 31.5489 185.987 31.3359 185.905 31.1372C185.822 30.9385 185.701 30.7581 185.548 30.6064C185.396 30.4547 185.215 30.3346 185.016 30.253C184.817 30.1715 184.603 30.1301 184.388 30.1312H173.723Z" fill="#100436" stroke="#100436" stroke-miterlimit="10"/>
<path d="M172.082 35.8719V33.4054" stroke="#100436" stroke-miterlimit="10"/>
<path d="M183.572 35.8719V33.4054" stroke="#100436" stroke-miterlimit="10"/>
<path d="M184.388 22.7492H169.624L177.006 17L184.388 22.7492Z" fill="#100436" stroke="#100436" stroke-miterlimit="10"/>
<path d="M177.006 30.1312V22.7406" stroke="#100436" stroke-miterlimit="10"/>
<path d="M177.006 35.8719V33.4054" stroke="#100436" stroke-miterlimit="10"/>
</g>
<defs>
<filter id="filter0_d_3_54" x="-1" y="0" width="173" height="53.4922" filterUnits="userSpaceOnUse" color-interpolation-filters="sRGB">
<feFlood flood-opacity="0" result="BackgroundImageFix"/>
<feColorMatrix in="SourceAlpha" type="matrix" values="0 0 0 0 0 0 0 0 0 0 0 0 0 0 0 0 0 0 127 0" result="hardAlpha"/>
<feOffset dy="4"/>
<feGaussianBlur stdDeviation="2"/>
<feComposite in2="hardAlpha" operator="out"/>
<feColorMatrix type="matrix" values="0 0 0 0 0 0 0 0 0 0 0 0 0 0 0 0 0 0 0.25 0"/>
<feBlend mode="normal" in2="BackgroundImageFix" result="effect1_dropShadow_3_54"/>
<feBlend mode="normal" in="SourceGraphic" in2="effect1_dropShadow_3_54" result="shape"/>
</filter>
<filter id="filter1_d_3_54" x="163.243" y="16.3662" width="27.2866" height="28.3455" filterUnits="userSpaceOnUse" color-interpolation-filters="sRGB">
<feFlood flood-opacity="0" result="BackgroundImageFix"/>
<feColorMatrix in="SourceAlpha" type="matrix" values="0 0 0 0 0 0 0 0 0 0 0 0 0 0 0 0 0 0 127 0" result="hardAlpha"/>
<feOffset dy="4"/>
<feGaussianBlur stdDeviation="2"/>
<feComposite in2="hardAlpha" operator="out"/>
<feColorMatrix type="matrix" values="0 0 0 0 0 0 0 0 0 0 0 0 0 0 0 0 0 0 0.25 0"/>
<feBlend mode="normal" in2="BackgroundImageFix" result="effect1_dropShadow_3_54"/>
<feBlend mode="normal" in="SourceGraphic" in2="effect1_dropShadow_3_54" result="shape"/>
</filter>
</defs>
</svg>
